<?xml version="1.0" encoding="utf-8"?>
<!-- Generated by Mocodo 4.2.8 -->
<svg width="266" height="399" viewBox="0 0 266 399" xmlns="http://www.w3.org/2000/svg">
<rect x="0" y="0" width="266" height="399" fill="#ffffff" stroke="none" stroke-width="0"/>

<!-- Association CREER -->
<g>
	<line x1="190" y1="288" x2="190" y2="60" stroke="#878787" stroke-width="2"/>
	<line x1="50" y1="60" x2="190" y2="60" stroke="#878787" stroke-width="2"/>
	<g>
		<path d="M204 35 a14 14 90 0 1 14 14 V60 h-56 V49 a14 14 90 0 1 14 -14" fill="#bababa" stroke="#bababa" stroke-width="0"/>
		<path d="M218 60 v11 a14 14 90 0 1 -14 14 H176 a14 14 90 0 1 -14 -14 V60 H56" fill="#e0e0e0" stroke="#e0e0e0" stroke-width="0"/>
		<rect x="162" y="35" width="56" height="50" fill="none" rx="14" stroke="#878787" stroke-width="2"/>
		<line x1="162" y1="60" x2="218" y2="60" stroke="#878787" stroke-width="1"/>
		<text x="170" y="52.75" fill="#000000" font-family="Verdana" font-size="12">CREER</text>
	</g>
	<text x="195" y="178" fill="#b2182b" font-family="Verdana" font-size="12">0,N</text>
	<text x="89" y="77" fill="#b2182b" font-family="Verdana" font-size="12">0,N</text>
</g>

<!-- Association CREER2 -->
<g>
	<line x1="50" y1="288" x2="50" y2="161" stroke="#878787" stroke-width="2"/>
	<line x1="50" y1="60" x2="50" y2="161" stroke="#878787" stroke-width="2"/>
	<g>
		<path d="M64 136 a14 14 90 0 1 14 14 V161 h-56 V150 a14 14 90 0 1 14 -14" fill="#bababa" stroke="#bababa" stroke-width="0"/>
		<path d="M78 161 v11 a14 14 90 0 1 -14 14 H36 a14 14 90 0 1 -14 -14 V161 H56" fill="#e0e0e0" stroke="#e0e0e0" stroke-width="0"/>
		<rect x="22" y="136" width="56" height="50" fill="none" rx="14" stroke="#878787" stroke-width="2"/>
		<line x1="22" y1="161" x2="78" y2="161" stroke="#878787" stroke-width="1"/>
		<text x="30" y="153.75" fill="#000000" font-family="Verdana" font-size="12">CREER</text>
	</g>
	<text x="55" y="204" fill="#b2182b" font-family="Verdana" font-size="12">0,N</text>
	<text x="55" y="128" fill="#b2182b" font-family="Verdana" font-size="12">0,N</text>
</g>

<!-- Entity USER -->
<g>
	<g>
		<rect x="16" y="9" width="68" height="25" fill="#f4a582" stroke="none" stroke-width="0" opacity="1"/>
		<rect x="16" y="34" width="68" height="77" fill="#fddbc7" stroke="none" stroke-width="0" opacity="1"/>
		<rect x="16" y="9" width="68" height="102" fill="none" stroke="#d6604d" stroke-width="2" opacity="1"/>
		<line x1="16" y1="34" x2="84" y2="34" stroke="#d6604d" stroke-width="1"/>
	</g>
	<text x="33" y="26.75" fill="#000000" font-family="Verdana" font-size="12">USER</text>
	<text x="21" y="51.8" fill="#000000" font-family="Verdana" font-size="12">id</text>
	<line x1="21" y1="54" x2="33" y2="54" stroke="#000000" stroke-width="1"/>
	<text x="21" y="68.8" fill="#000000" font-family="Verdana" font-size="12">pseudo</text>
	<text x="21" y="85.8" fill="#000000" font-family="Verdana" font-size="12">mail</text>
	<text x="21" y="102.8" fill="#000000" font-family="Verdana" font-size="12">password</text>
</g>

<!-- Entity QG -->
<g>
	<g>
		<rect x="9" y="212" width="82" height="25" fill="#f4a582" stroke="none" stroke-width="0" opacity="1"/>
		<rect x="9" y="237" width="82" height="127" fill="#fddbc7" stroke="none" stroke-width="0" opacity="1"/>
		<rect x="9" y="212" width="82" height="152" fill="none" stroke="#d6604d" stroke-width="2" opacity="1"/>
		<line x1="9" y1="237" x2="91" y2="237" stroke="#d6604d" stroke-width="1"/>
	</g>
	<text x="40" y="229.75" fill="#000000" font-family="Verdana" font-size="12">QG</text>
	<text x="14" y="254.8" fill="#000000" font-family="Verdana" font-size="12">id</text>
	<line x1="14" y1="257" x2="26" y2="257" stroke="#000000" stroke-width="1"/>
	<text x="14" y="271.8" fill="#000000" font-family="Verdana" font-size="12">pdv_start</text>
	<text x="14" y="288.8" fill="#000000" font-family="Verdana" font-size="12">pdv_act</text>
	<text x="14" y="305.8" fill="#000000" font-family="Verdana" font-size="12">exp</text>
	<text x="14" y="322.8" fill="#000000" font-family="Verdana" font-size="12">note</text>
	<text x="14" y="339.8" fill="#000000" font-family="Verdana" font-size="12">chapitre</text>
	<text x="14" y="356.8" fill="#000000" font-family="Verdana" font-size="12">equipement</text>
</g>

<!-- Entity LS -->
<g>
	<g>
		<rect x="123" y="186" width="134" height="25" fill="#f4a582" stroke="none" stroke-width="0" opacity="1"/>
		<rect x="123" y="211" width="134" height="179" fill="#fddbc7" stroke="none" stroke-width="0" opacity="1"/>
		<rect x="123" y="186" width="134" height="204" fill="none" stroke="#d6604d" stroke-width="2" opacity="1"/>
		<line x1="123" y1="211" x2="257" y2="211" stroke="#d6604d" stroke-width="1"/>
	</g>
	<text x="182" y="203.75" fill="#000000" font-family="Verdana" font-size="12">LS</text>
	<text x="128" y="228.8" fill="#000000" font-family="Verdana" font-size="12">id</text>
	<line x1="128" y1="231" x2="140" y2="231" stroke="#000000" stroke-width="1"/>
	<text x="128" y="245.8" fill="#000000" font-family="Verdana" font-size="12">hab</text>
	<text x="128" y="262.8" fill="#000000" font-family="Verdana" font-size="12">end</text>
	<text x="128" y="279.8" fill="#000000" font-family="Verdana" font-size="12">equipement</text>
	<text x="128" y="296.8" fill="#000000" font-family="Verdana" font-size="12">equipment&#45;speciaux</text>
	<text x="128" y="313.8" fill="#000000" font-family="Verdana" font-size="12">or</text>
	<text x="128" y="330.8" fill="#000000" font-family="Verdana" font-size="12">repas</text>
	<text x="128" y="347.8" fill="#000000" font-family="Verdana" font-size="12">discipline_kai</text>
	<text x="128" y="364.8" fill="#000000" font-family="Verdana" font-size="12">discipline_kai_supp</text>
	<text x="128" y="381.8" fill="#000000" font-family="Verdana" font-size="12">chapitre</text>
</g>
</svg>